<svg width="32" height="33" viewBox="0 0 32 33" fill="none" xmlns="http://www.w3.org/2000/svg">
<path d="M16 0.0234375C13.8989 0.0234375 11.8183 0.447564 9.87706 1.2716C7.93586 2.09564 6.17203 3.30345 4.68629 4.82608C1.68571 7.90115 0 12.0719 0 16.4207C0 23.6682 4.592 29.8172 10.944 31.998C11.744 32.1292 12 31.6209 12 31.1782V28.407C7.568 29.3909 6.624 26.2098 6.624 26.2098C5.888 24.3077 4.848 23.7994 4.848 23.7994C3.392 22.7828 4.96 22.8156 4.96 22.8156C6.56 22.9304 7.408 24.5045 7.408 24.5045C8.8 26.9969 11.152 26.259 12.064 25.8655C12.208 24.7997 12.624 24.0782 13.072 23.6682C9.52 23.2583 5.792 21.8482 5.792 15.6008C5.792 13.7807 6.4 12.3214 7.44 11.1572C7.28 10.7472 6.72 9.04191 7.6 6.82829C7.6 6.82829 8.944 6.38556 12 8.50081C13.264 8.14007 14.64 7.9597 16 7.9597C17.36 7.9597 18.736 8.14007 20 8.50081C23.056 6.38556 24.4 6.82829 24.4 6.82829C25.28 9.04191 24.72 10.7472 24.56 11.1572C25.6 12.3214 26.208 13.7807 26.208 15.6008C26.208 21.8645 22.464 23.2419 18.896 23.6518C19.472 24.1602 20 25.1604 20 26.6853V31.1782C20 31.6209 20.256 32.1456 21.072 31.998C27.424 29.8008 32 23.6682 32 16.4207C32 14.2674 31.5861 12.1351 30.7821 10.1457C29.978 8.15632 28.7994 6.3487 27.3137 4.82608C25.828 3.30345 24.0641 2.09564 22.1229 1.2716C20.1817 0.447564 18.1012 0.0234375 16 0.0234375Z" fill="#1E7B9D"/>
</svg>
