<svg width="24" height="24" viewBox="0 0 24 24" fill="none" xmlns="http://www.w3.org/2000/svg">
<path d="M5.03673 3.48056C5.03639 4.14847 4.77075 4.78889 4.29822 5.26094C3.8257 5.73299 3.18502 5.998 2.5171 5.99766C1.84919 5.99733 1.20877 5.73168 0.736721 5.25916C0.264673 4.78664 -0.00033364 4.14595 3.15251e-07 3.47804C0.000334271 2.81013 0.265981 2.16971 0.738502 1.69766C1.21102 1.22561 1.85171 0.960604 2.51962 0.960938C3.18753 0.961272 3.82796 1.22692 4.30001 1.69944C4.77205 2.17196 5.03706 2.81265 5.03673 3.48056ZM5.11228 7.86251H0.0755511V23.6275H5.11228V7.86251ZM13.0703 7.86251H8.05876V23.6275H13.0199V15.3546C13.0199 10.746 19.0262 10.3179 19.0262 15.3546V23.6275H24V13.6422C24 5.87301 15.1102 6.16262 13.0199 9.97794L13.0703 7.86251Z" fill="#F2F2F2"/>
</svg>
