<svg width="24" height="20" viewBox="0 0 24 20" fill="none" xmlns="http://www.w3.org/2000/svg">
<path d="M21.6 0.695312H2.4C1.08 0.695312 0 1.77531 0 3.09531V17.4953C0 18.8153 1.08 19.8953 2.4 19.8953H21.6C22.92 19.8953 24 18.8153 24 17.4953V3.09531C24 1.77531 22.92 0.695312 21.6 0.695312ZM21.12 5.79531L13.272 10.7033C12.492 11.1953 11.508 11.1953 10.728 10.7033L2.88 5.79531C2.75967 5.72777 2.6543 5.63651 2.57027 5.52706C2.48623 5.41761 2.42527 5.29225 2.39109 5.15856C2.35691 5.02487 2.3502 4.88563 2.37139 4.74928C2.39257 4.61293 2.4412 4.48229 2.51434 4.36527C2.58747 4.24826 2.68359 4.1473 2.79687 4.06851C2.91015 3.98971 3.03825 3.93473 3.17339 3.90687C3.30854 3.87902 3.44794 3.87887 3.58315 3.90645C3.71835 3.93403 3.84656 3.98875 3.96 4.06731L12 9.09531L20.04 4.06731C20.1534 3.98875 20.2817 3.93403 20.4169 3.90645C20.5521 3.87887 20.6915 3.87902 20.8266 3.90687C20.9618 3.93473 21.0898 3.98971 21.2031 4.06851C21.3164 4.1473 21.4125 4.24826 21.4857 4.36527C21.5588 4.48229 21.6074 4.61293 21.6286 4.74928C21.6498 4.88563 21.6431 5.02487 21.6089 5.15856C21.5747 5.29225 21.5138 5.41761 21.4297 5.52706C21.3457 5.63651 21.2403 5.72777 21.12 5.79531Z" fill="#F2F2F2"/>
</svg>
