<svg width="32" height="33" viewBox="0 0 32 33" fill="none" xmlns="http://www.w3.org/2000/svg">
<path d="M29.0909 8.75071H26.1818V2.93253C26.1818 2.16099 25.8753 1.42105 25.3298 0.875491C24.7842 0.32993 24.0443 0.0234375 23.2727 0.0234375H8.72727C7.95573 0.0234375 7.2158 0.32993 6.67023 0.875491C6.12467 1.42105 5.81818 2.16099 5.81818 2.93253V5.84162H2.90909C2.13755 5.84162 1.39761 6.14811 0.852053 6.69367C0.306493 7.23923 0 7.97917 0 8.75071V14.5689C0 15.3404 0.306493 16.0804 0.852053 16.6259C1.39761 17.1715 2.13755 17.478 2.90909 17.478H5.81818V29.1143C5.81818 29.8859 6.12467 30.6258 6.67023 31.1714C7.2158 31.7169 7.95573 32.0234 8.72727 32.0234H23.2727C24.0443 32.0234 24.7842 31.7169 25.3298 31.1714C25.8753 30.6258 26.1818 29.8859 26.1818 29.1143V26.2053H29.0909C29.8624 26.2053 30.6024 25.8988 31.1479 25.3532C31.6935 24.8076 32 24.0677 32 23.2962V11.6598C32 10.8883 31.6935 10.1483 31.1479 9.60276C30.6024 9.0572 29.8624 8.75071 29.0909 8.75071ZM23.2727 29.1143H8.72727V17.478H11.6364C12.4079 17.478 13.1478 17.1715 13.6934 16.6259C14.239 16.0804 14.5455 15.3404 14.5455 14.5689V8.75071C14.5455 7.97917 14.239 7.23923 13.6934 6.69367C13.1478 6.14811 12.4079 5.84162 11.6364 5.84162H8.72727V2.93253H23.2727V8.75071H20.3636C19.5921 8.75071 18.8522 9.0572 18.3066 9.60276C17.761 10.1483 17.4545 10.8883 17.4545 11.6598V23.2962C17.4545 24.0677 17.761 24.8076 18.3066 25.3532C18.8522 25.8988 19.5921 26.2053 20.3636 26.2053H23.2727V29.1143ZM29.0909 23.2962H20.3636V11.6598H29.0909V23.2962Z" fill="#1E7B9D"/>
</svg>
