<svg width="32" height="33" viewBox="0 0 32 33" fill="none" xmlns="http://www.w3.org/2000/svg">
<path fill-rule="evenodd" clip-rule="evenodd" d="M16 32.3438C18.1012 32.3438 20.1817 31.9299 22.1229 31.1258C24.0641 30.3217 25.828 29.1432 27.3137 27.6575C28.7994 26.1717 29.978 24.4079 30.7821 22.4667C31.5861 20.5255 32 18.4449 32 16.3438C32 14.2426 31.5861 12.162 30.7821 10.2208C29.978 8.27961 28.7994 6.51578 27.3137 5.03004C25.828 3.5443 24.0641 2.36575 22.1229 1.56168C20.1817 0.757602 18.1012 0.34375 16 0.34375C11.7565 0.34375 7.68687 2.02946 4.68629 5.03004C1.68571 8.03062 0 12.1003 0 16.3438C0 20.5872 1.68571 24.6569 4.68629 27.6575C7.68687 30.658 11.7565 32.3438 16 32.3438ZM13.8364 9.21486L23.8702 14.79C24.1472 14.944 24.378 15.1692 24.5387 15.4424C24.6994 15.7156 24.7841 16.0268 24.7841 16.3438C24.7841 16.6607 24.6994 16.9719 24.5387 17.2451C24.378 17.5183 24.1472 17.7435 23.8702 17.8975L13.8364 23.4726C13.5116 23.6532 13.1451 23.7458 12.7734 23.7412C12.4018 23.7365 12.0377 23.6349 11.7175 23.4463C11.3972 23.2576 11.1317 22.9886 10.9474 22.6658C10.7631 22.343 10.6663 21.9777 10.6667 21.606V11.0815C10.6663 10.7098 10.7631 10.3445 10.9474 10.0217C11.1317 9.69889 11.3972 9.42986 11.7175 9.24124C12.0377 9.05262 12.4018 8.95096 12.7734 8.94634C13.1451 8.94171 13.5116 9.03427 13.8364 9.21486Z" fill="#1E7B9D"/>
</svg>
