<svg width="32" height="33" viewBox="0 0 32 33" fill="none" xmlns="http://www.w3.org/2000/svg">
<path d="M21.8127 19.0547C21.9193 18.1747 21.9993 17.2947 21.9993 16.388C21.9993 15.4814 21.9193 14.6014 21.8127 13.7214H26.3193C26.5327 14.5747 26.666 15.468 26.666 16.388C26.666 17.308 26.5327 18.2014 26.3193 19.0547M19.4527 26.468C20.2527 24.988 20.866 23.388 21.2927 21.7214H25.226C23.9342 23.9457 21.8848 25.6307 19.4527 26.468ZM19.1194 19.0547H12.8793C12.746 18.1747 12.666 17.2947 12.666 16.388C12.666 15.4814 12.746 14.588 12.8793 13.7214H19.1194C19.2393 14.588 19.3327 15.4814 19.3327 16.388C19.3327 17.2947 19.2393 18.1747 19.1194 19.0547ZM15.9993 27.0014C14.8927 25.4014 13.9993 23.628 13.4527 21.7214H18.546C17.9993 23.628 17.106 25.4014 15.9993 27.0014ZM10.666 11.0547H6.77268C8.05116 8.82431 10.0991 7.13667 12.5327 6.30802C11.7327 7.78802 11.1327 9.38802 10.666 11.0547ZM6.77268 21.7214H10.666C11.1327 23.388 11.7327 24.988 12.5327 26.468C10.1042 25.6302 8.05914 23.945 6.77268 21.7214ZM5.67935 19.0547C5.46602 18.2014 5.33268 17.308 5.33268 16.388C5.33268 15.468 5.46602 14.5747 5.67935 13.7214H10.186C10.0793 14.6014 9.99935 15.4814 9.99935 16.388C9.99935 17.2947 10.0793 18.1747 10.186 19.0547M15.9993 5.76135C17.106 7.36135 17.9993 9.14802 18.546 11.0547H13.4527C13.9993 9.14802 14.8927 7.36135 15.9993 5.76135ZM25.226 11.0547H21.2927C20.8754 9.4033 20.2574 7.80922 19.4527 6.30802C21.906 7.14802 23.946 8.84135 25.226 11.0547ZM15.9993 3.05469C8.62602 3.05469 2.66602 9.05469 2.66602 16.388C2.66602 19.9242 4.07077 23.3156 6.57126 25.8161C7.80937 27.0542 9.27923 28.0364 10.8969 28.7064C12.5146 29.3765 14.2484 29.7214 15.9993 29.7214C19.5356 29.7214 22.927 28.3166 25.4274 25.8161C27.9279 23.3156 29.3327 19.9242 29.3327 16.388C29.3327 14.6371 28.9878 12.9032 28.3177 11.2856C27.6477 9.6679 26.6656 8.19805 25.4274 6.95993C24.1893 5.72182 22.7195 4.73969 21.1018 4.06963C19.4841 3.39956 17.7503 3.05469 15.9993 3.05469Z" fill="#1E7B9D"/>
</svg>
