<svg width="883" height="491" viewBox="0 0 883 491" fill="none" xmlns="http://www.w3.org/2000/svg">
<circle cx="170" cy="341" r="150" fill="white"/>
<path d="M199.28 326L215.608 248C215.608 248 166.958 282.779 133.968 291.875C70.7019 309.319 36 306.5 36 306.5" stroke="#20708C" stroke-width="3" stroke-linecap="round"/>
<path d="M248.672 341L265 263C265 263 216.35 297.779 183.36 306.875C120.094 324.319 85.3918 321.5 85.3918 321.5" stroke="#20708C" stroke-width="3" stroke-linecap="round"/>
<path d="M243.5 352.5C243.5 352.5 228.5 343 224 341C219.5 339 211 336.42 207.5 336C195.5 334.561 188.745 336.067 180 342C164.525 352.5 162.5 365.383 162.5 382.5C162.5 397.5 167.5 410.5 170 415.5C174.707 424.915 182 430.785 189 433.5C194.027 435.449 199.692 436.515 204.5 436.5C209.308 436.485 212.598 436.154 218.5 434.5C222.058 433.503 224.5 432.742 230.5 428.5C233.578 426.324 235 425 238.5 421.5C242 418 246.5 413 243 402.5C241.5 398 240.174 395.382 238.5 390.5M238.5 390.5C237.831 388.547 236.5 386.409 236 385.5C232.886 379.836 222.318 379.263 214.5 380.5C209.565 381.281 206.628 382.936 204.5 384C199 386.75 190.635 395.445 193 399.5C196.5 405.5 213 400.5 216 399.5C222.5 397.333 228.458 394.405 238.5 390.5Z" stroke="#20708C" stroke-width="3" stroke-linecap="round" stroke-linejoin="round"/>
<path d="M298.632 356.792C301.896 356.792 304.488 357.272 306.408 358.232C308.424 359.096 309.432 360.296 309.432 361.832C309.432 362.504 309.288 363.128 309 363.704C308.712 364.28 308.328 364.664 307.848 364.856C305.64 363.32 302.328 362.552 297.912 362.552C293.304 362.552 289.128 363.896 285.384 366.584C281.64 369.272 278.664 372.92 276.456 377.528C274.344 382.136 273.288 387.224 273.288 392.792V437H267.24V357.8H273.288V373.352C275.688 368.456 279.192 364.472 283.8 361.4C288.408 358.328 293.352 356.792 298.632 356.792Z" fill="#20708C"/>
<path d="M352.112 438.44C340.976 438.44 332.576 434.984 326.912 428.072C321.248 421.16 318.416 410.888 318.416 397.256C318.416 369.992 329.648 356.36 352.112 356.36C374.576 356.36 385.808 369.992 385.808 397.256C385.808 410.888 382.976 421.16 377.312 428.072C371.648 434.984 363.248 438.44 352.112 438.44ZM352.112 432.968C361.52 432.968 368.48 430.04 372.992 424.184C377.504 418.328 379.76 409.352 379.76 397.256C379.76 385.256 377.456 376.328 372.848 370.472C368.336 364.616 361.424 361.688 352.112 361.688C342.704 361.688 335.744 364.616 331.232 370.472C326.72 376.232 324.464 385.16 324.464 397.256C324.464 409.352 326.72 418.328 331.232 424.184C335.744 430.04 342.704 432.968 352.112 432.968ZM483.851 356.36C492.011 356.36 498.347 358.472 502.859 362.696C507.467 366.92 509.771 372.728 509.771 380.12V437H503.723V380.552C503.723 374.408 501.947 369.704 498.395 366.44C494.939 363.176 489.899 361.544 483.275 361.544C478.955 361.544 474.683 362.552 470.459 364.568C466.235 366.488 462.395 369.224 458.939 372.776C459.419 375.368 459.659 377.864 459.659 380.264V437H453.611V380.552C453.611 374.12 452.267 369.368 449.579 366.296C446.987 363.128 442.955 361.544 437.483 361.544C432.683 361.544 427.931 362.648 423.227 364.856C418.523 367.064 414.299 370.136 410.555 374.072V437H404.507V377.528C404.507 373.112 404.459 369.56 404.363 366.872C404.363 364.088 404.219 362.264 403.931 361.4C403.739 360.536 403.355 359.864 402.779 359.384C404.219 357.944 405.707 357.224 407.243 357.224C409.451 357.224 410.555 360.488 410.555 367.016V367.448C414.491 363.8 418.763 361.064 423.371 359.24C428.075 357.32 432.875 356.36 437.771 356.36C442.283 356.36 446.171 357.32 449.435 359.24C452.699 361.064 455.195 363.752 456.923 367.304C460.475 363.848 464.603 361.16 469.307 359.24C474.107 357.32 478.955 356.36 483.851 356.36ZM591.435 418.712C591.435 423.224 591.771 426.68 592.443 429.08C593.211 431.384 594.507 433.208 596.331 434.552C596.235 435.224 595.755 435.944 594.891 436.712C594.123 437.384 593.355 437.72 592.587 437.72C590.667 437.72 589.035 436.232 587.691 433.256C586.347 430.28 585.579 426.584 585.387 422.168C581.835 427.256 577.179 431.24 571.419 434.12C565.659 437 559.467 438.44 552.843 438.44C548.523 438.44 544.635 437.528 541.179 435.704C537.723 433.88 534.987 431.384 532.971 428.216C531.051 424.952 530.091 421.304 530.091 417.272C530.091 399.224 548.523 389.432 585.387 387.896V383.288C585.387 368.792 578.139 361.544 563.643 361.544C552.987 361.544 543.819 365.384 536.139 373.064C535.659 373.544 535.083 373.784 534.411 373.784C533.643 373.784 532.875 373.496 532.107 372.92C531.339 372.344 530.715 371.576 530.235 370.616C534.267 366.104 539.259 362.6 545.211 360.104C551.163 357.608 557.451 356.36 564.075 356.36C572.811 356.36 579.531 358.712 584.235 363.416C589.035 368.12 591.435 374.744 591.435 383.288V418.712ZM553.563 433.256C559.419 433.256 565.131 431.576 570.699 428.216C576.267 424.856 581.163 420.2 585.387 414.248V393.08C568.587 393.752 556.155 396.056 548.091 399.992C540.123 403.928 536.139 409.64 536.139 417.128C536.139 421.928 537.723 425.816 540.891 428.792C544.155 431.768 548.379 433.256 553.563 433.256ZM646.82 356.792C650.084 356.792 652.676 357.272 654.596 358.232C656.612 359.096 657.62 360.296 657.62 361.832C657.62 362.504 657.476 363.128 657.188 363.704C656.9 364.28 656.516 364.664 656.036 364.856C653.828 363.32 650.516 362.552 646.1 362.552C641.492 362.552 637.316 363.896 633.572 366.584C629.828 369.272 626.852 372.92 624.644 377.528C622.532 382.136 621.476 387.224 621.476 392.792V437H615.428V357.8H621.476V373.352C623.876 368.456 627.38 364.472 631.988 361.4C636.596 358.328 641.54 356.792 646.82 356.792ZM729.388 418.712C729.388 423.224 729.724 426.68 730.396 429.08C731.164 431.384 732.46 433.208 734.284 434.552C734.188 435.224 733.708 435.944 732.844 436.712C732.076 437.384 731.308 437.72 730.54 437.72C728.62 437.72 726.988 436.232 725.644 433.256C724.3 430.28 723.532 426.584 723.34 422.168C719.788 427.256 715.132 431.24 709.372 434.12C703.612 437 697.42 438.44 690.796 438.44C686.476 438.44 682.588 437.528 679.132 435.704C675.676 433.88 672.94 431.384 670.924 428.216C669.004 424.952 668.044 421.304 668.044 417.272C668.044 399.224 686.476 389.432 723.34 387.896V383.288C723.34 368.792 716.092 361.544 701.596 361.544C690.94 361.544 681.772 365.384 674.092 373.064C673.612 373.544 673.036 373.784 672.364 373.784C671.596 373.784 670.828 373.496 670.06 372.92C669.292 372.344 668.668 371.576 668.188 370.616C672.22 366.104 677.212 362.6 683.164 360.104C689.116 357.608 695.404 356.36 702.028 356.36C710.764 356.36 717.484 358.712 722.188 363.416C726.988 368.12 729.388 374.744 729.388 383.288V418.712ZM691.516 433.256C697.372 433.256 703.084 431.576 708.652 428.216C714.22 424.856 719.116 420.2 723.34 414.248V393.08C706.54 393.752 694.108 396.056 686.044 399.992C678.076 403.928 674.092 409.64 674.092 417.128C674.092 421.928 675.676 425.816 678.844 428.792C682.108 431.768 686.332 433.256 691.516 433.256ZM816.021 421.448C816.021 425.672 816.213 428.744 816.597 430.664C816.981 432.584 817.749 434.36 818.901 435.992C818.613 436.472 818.085 436.856 817.317 437.144C816.549 437.528 815.829 437.72 815.157 437.72C813.333 437.72 811.989 436.52 811.125 434.12C810.357 431.624 809.973 427.688 809.973 422.312V383.288C809.973 375.704 808.389 370.136 805.221 366.584C802.053 363.032 797.109 361.256 790.389 361.256C785.397 361.256 780.213 362.504 774.837 365C769.461 367.4 764.565 370.712 760.149 374.936V437H754.101V377.528C754.101 373.112 754.053 369.56 753.957 366.872C753.957 364.088 753.813 362.264 753.525 361.4C753.333 360.536 752.949 359.864 752.373 359.384C753.813 357.944 755.301 357.224 756.837 357.224C758.085 357.224 758.949 357.992 759.429 359.528C759.909 360.968 760.149 363.464 760.149 367.016V368.888C764.757 364.952 769.797 361.88 775.269 359.672C780.741 357.464 786.117 356.36 791.397 356.36C799.653 356.36 805.797 358.616 809.829 363.128C813.957 367.544 816.021 374.312 816.021 383.432V421.448ZM878.279 430.232C879.431 430.904 880.007 431.768 880.007 432.824C880.007 433.496 879.815 434.168 879.431 434.84C879.143 435.416 878.759 435.848 878.279 436.136C876.647 437 874.871 437.576 872.951 437.864C871.031 438.248 868.343 438.44 864.887 438.44C859.127 438.44 854.471 436.616 850.919 432.968C847.463 429.224 845.735 424.28 845.735 418.136V362.984H830.759V357.8H845.735V336.2H851.783V357.8H876.263V362.984H851.783V416.84C851.783 422.12 852.983 426.2 855.383 429.08C857.879 431.864 861.383 433.256 865.895 433.256C870.695 433.256 874.823 432.248 878.279 430.232Z" fill="#284E5B"/>
</svg>
