<svg width="300" height="300" viewBox="0 0 300 300" fill="none" xmlns="http://www.w3.org/2000/svg">
<circle cx="150" cy="150" r="150" fill="#284E5B"/>
<path d="M179.28 135L195.608 57C195.608 57 146.958 91.779 113.968 100.875C50.7019 118.319 16 115.5 16 115.5" stroke="white" stroke-width="10" stroke-linecap="round"/>
<path d="M228.672 150L245 72C245 72 196.35 106.779 163.36 115.875C100.094 133.319 65.3918 130.5 65.3918 130.5" stroke="white" stroke-width="10" stroke-linecap="round"/>
<path d="M223.5 161.5C223.5 161.5 208.5 152 204 150C199.5 148 191 145.42 187.5 145C175.5 143.561 168.745 145.067 160 151C144.525 161.5 142.5 174.383 142.5 191.5C142.5 206.5 147.5 219.5 150 224.5C154.707 233.915 162 239.785 169 242.5C174.027 244.449 179.692 245.515 184.5 245.5C189.308 245.485 192.598 245.154 198.5 243.5C202.058 242.503 204.5 241.742 210.5 237.5C213.578 235.324 215 234 218.5 230.5C222 227 226.5 222 223 211.5C221.5 207 220.174 204.382 218.5 199.5M218.5 199.5C217.831 197.547 216.5 195.409 216 194.5C212.886 188.836 202.318 188.263 194.5 189.5C189.565 190.281 186.628 191.936 184.5 193C179 195.75 170.635 204.445 173 208.5C176.5 214.5 193 209.5 196 208.5C202.5 206.333 208.458 203.405 218.5 199.5Z" stroke="white" stroke-width="10" stroke-linecap="round" stroke-linejoin="round"/>
<path d="M280.504 165.792C288.088 165.792 291.88 168.624 291.88 174.288C291.88 176.592 291.256 178.464 290.008 179.904C287.512 178.656 284.248 178.032 280.216 178.032C273.88 178.032 268.888 180.384 265.24 185.088C261.688 189.696 259.912 196.08 259.912 204.24V246H246.232V166.8H259.912V180.048C262.024 175.728 264.904 172.272 268.552 169.68C272.296 167.088 276.28 165.792 280.504 165.792Z" fill="white"/>
</svg>
