<svg width="863" height="303" viewBox="0 0 863 303" fill="none" xmlns="http://www.w3.org/2000/svg">
<circle cx="150" cy="150" r="150" fill="#284E5B"/>
<path d="M179.28 135L195.608 57C195.608 57 146.958 91.779 113.968 100.875C50.7019 118.319 16 115.5 16 115.5" stroke="white" stroke-width="3" stroke-linecap="round"/>
<path d="M228.672 150L245 72C245 72 196.35 106.779 163.36 115.875C100.094 133.319 65.3918 130.5 65.3918 130.5" stroke="white" stroke-width="3" stroke-linecap="round"/>
<path d="M223.5 161.5C223.5 161.5 208.5 152 204 150C199.5 148 191 145.42 187.5 145C175.5 143.561 168.745 145.067 160 151C144.525 161.5 142.5 174.383 142.5 191.5C142.5 206.5 147.5 219.5 150 224.5C154.707 233.915 162 239.785 169 242.5C174.027 244.449 179.692 245.515 184.5 245.5C189.308 245.485 192.598 245.154 198.5 243.5C202.058 242.503 204.5 241.742 210.5 237.5C213.578 235.324 215 234 218.5 230.5C222 227 226.5 222 223 211.5C221.5 207 220.174 204.382 218.5 199.5M218.5 199.5C217.831 197.547 216.5 195.409 216 194.5C212.886 188.836 202.318 188.263 194.5 189.5C189.565 190.281 186.628 191.936 184.5 193C179 195.75 170.635 204.445 173 208.5C176.5 214.5 193 209.5 196 208.5C202.5 206.333 208.458 203.405 218.5 199.5Z" stroke="white" stroke-width="3" stroke-linecap="round" stroke-linejoin="round"/>
<path d="M278.632 165.792C281.896 165.792 284.488 166.272 286.408 167.232C288.424 168.096 289.432 169.296 289.432 170.832C289.432 171.504 289.288 172.128 289 172.704C288.712 173.28 288.328 173.664 287.848 173.856C285.64 172.32 282.328 171.552 277.912 171.552C273.304 171.552 269.128 172.896 265.384 175.584C261.64 178.272 258.664 181.92 256.456 186.528C254.344 191.136 253.288 196.224 253.288 201.792V246H247.24V166.8H253.288V182.352C255.688 177.456 259.192 173.472 263.8 170.4C268.408 167.328 273.352 165.792 278.632 165.792Z" fill="white"/>
<path d="M332.112 247.44C320.976 247.44 312.576 243.984 306.912 237.072C301.248 230.16 298.416 219.888 298.416 206.256C298.416 178.992 309.648 165.36 332.112 165.36C354.576 165.36 365.808 178.992 365.808 206.256C365.808 219.888 362.976 230.16 357.312 237.072C351.648 243.984 343.248 247.44 332.112 247.44ZM332.112 241.968C341.52 241.968 348.48 239.04 352.992 233.184C357.504 227.328 359.76 218.352 359.76 206.256C359.76 194.256 357.456 185.328 352.848 179.472C348.336 173.616 341.424 170.688 332.112 170.688C322.704 170.688 315.744 173.616 311.232 179.472C306.72 185.232 304.464 194.16 304.464 206.256C304.464 218.352 306.72 227.328 311.232 233.184C315.744 239.04 322.704 241.968 332.112 241.968ZM463.851 165.36C472.011 165.36 478.347 167.472 482.859 171.696C487.467 175.92 489.771 181.728 489.771 189.12V246H483.723V189.552C483.723 183.408 481.947 178.704 478.395 175.44C474.939 172.176 469.899 170.544 463.275 170.544C458.955 170.544 454.683 171.552 450.459 173.568C446.235 175.488 442.395 178.224 438.939 181.776C439.419 184.368 439.659 186.864 439.659 189.264V246H433.611V189.552C433.611 183.12 432.267 178.368 429.579 175.296C426.987 172.128 422.955 170.544 417.483 170.544C412.683 170.544 407.931 171.648 403.227 173.856C398.523 176.064 394.299 179.136 390.555 183.072V246H384.507V186.528C384.507 182.112 384.459 178.56 384.363 175.872C384.363 173.088 384.219 171.264 383.931 170.4C383.739 169.536 383.355 168.864 382.779 168.384C384.219 166.944 385.707 166.224 387.243 166.224C389.451 166.224 390.555 169.488 390.555 176.016V176.448C394.491 172.8 398.763 170.064 403.371 168.24C408.075 166.32 412.875 165.36 417.771 165.36C422.283 165.36 426.171 166.32 429.435 168.24C432.699 170.064 435.195 172.752 436.923 176.304C440.475 172.848 444.603 170.16 449.307 168.24C454.107 166.32 458.955 165.36 463.851 165.36ZM571.435 227.712C571.435 232.224 571.771 235.68 572.443 238.08C573.211 240.384 574.507 242.208 576.331 243.552C576.235 244.224 575.755 244.944 574.891 245.712C574.123 246.384 573.355 246.72 572.587 246.72C570.667 246.72 569.035 245.232 567.691 242.256C566.347 239.28 565.579 235.584 565.387 231.168C561.835 236.256 557.179 240.24 551.419 243.12C545.659 246 539.467 247.44 532.843 247.44C528.523 247.44 524.635 246.528 521.179 244.704C517.723 242.88 514.987 240.384 512.971 237.216C511.051 233.952 510.091 230.304 510.091 226.272C510.091 208.224 528.523 198.432 565.387 196.896V192.288C565.387 177.792 558.139 170.544 543.643 170.544C532.987 170.544 523.819 174.384 516.139 182.064C515.659 182.544 515.083 182.784 514.411 182.784C513.643 182.784 512.875 182.496 512.107 181.92C511.339 181.344 510.715 180.576 510.235 179.616C514.267 175.104 519.259 171.6 525.211 169.104C531.163 166.608 537.451 165.36 544.075 165.36C552.811 165.36 559.531 167.712 564.235 172.416C569.035 177.12 571.435 183.744 571.435 192.288V227.712ZM533.563 242.256C539.419 242.256 545.131 240.576 550.699 237.216C556.267 233.856 561.163 229.2 565.387 223.248V202.08C548.587 202.752 536.155 205.056 528.091 208.992C520.123 212.928 516.139 218.64 516.139 226.128C516.139 230.928 517.723 234.816 520.891 237.792C524.155 240.768 528.379 242.256 533.563 242.256ZM626.82 165.792C630.084 165.792 632.676 166.272 634.596 167.232C636.612 168.096 637.62 169.296 637.62 170.832C637.62 171.504 637.476 172.128 637.188 172.704C636.9 173.28 636.516 173.664 636.036 173.856C633.828 172.32 630.516 171.552 626.1 171.552C621.492 171.552 617.316 172.896 613.572 175.584C609.828 178.272 606.852 181.92 604.644 186.528C602.532 191.136 601.476 196.224 601.476 201.792V246H595.428V166.8H601.476V182.352C603.876 177.456 607.38 173.472 611.988 170.4C616.596 167.328 621.54 165.792 626.82 165.792ZM709.388 227.712C709.388 232.224 709.724 235.68 710.396 238.08C711.164 240.384 712.46 242.208 714.284 243.552C714.188 244.224 713.708 244.944 712.844 245.712C712.076 246.384 711.308 246.72 710.54 246.72C708.62 246.72 706.988 245.232 705.644 242.256C704.3 239.28 703.532 235.584 703.34 231.168C699.788 236.256 695.132 240.24 689.372 243.12C683.612 246 677.42 247.44 670.796 247.44C666.476 247.44 662.588 246.528 659.132 244.704C655.676 242.88 652.94 240.384 650.924 237.216C649.004 233.952 648.044 230.304 648.044 226.272C648.044 208.224 666.476 198.432 703.34 196.896V192.288C703.34 177.792 696.092 170.544 681.596 170.544C670.94 170.544 661.772 174.384 654.092 182.064C653.612 182.544 653.036 182.784 652.364 182.784C651.596 182.784 650.828 182.496 650.06 181.92C649.292 181.344 648.668 180.576 648.188 179.616C652.22 175.104 657.212 171.6 663.164 169.104C669.116 166.608 675.404 165.36 682.028 165.36C690.764 165.36 697.484 167.712 702.188 172.416C706.988 177.12 709.388 183.744 709.388 192.288V227.712ZM671.516 242.256C677.372 242.256 683.084 240.576 688.652 237.216C694.22 233.856 699.116 229.2 703.34 223.248V202.08C686.54 202.752 674.108 205.056 666.044 208.992C658.076 212.928 654.092 218.64 654.092 226.128C654.092 230.928 655.676 234.816 658.844 237.792C662.108 240.768 666.332 242.256 671.516 242.256ZM796.021 230.448C796.021 234.672 796.213 237.744 796.597 239.664C796.981 241.584 797.749 243.36 798.901 244.992C798.613 245.472 798.085 245.856 797.317 246.144C796.549 246.528 795.829 246.72 795.157 246.72C793.333 246.72 791.989 245.52 791.125 243.12C790.357 240.624 789.973 236.688 789.973 231.312V192.288C789.973 184.704 788.389 179.136 785.221 175.584C782.053 172.032 777.109 170.256 770.389 170.256C765.397 170.256 760.213 171.504 754.837 174C749.461 176.4 744.565 179.712 740.149 183.936V246H734.101V186.528C734.101 182.112 734.053 178.56 733.957 175.872C733.957 173.088 733.813 171.264 733.525 170.4C733.333 169.536 732.949 168.864 732.373 168.384C733.813 166.944 735.301 166.224 736.837 166.224C738.085 166.224 738.949 166.992 739.429 168.528C739.909 169.968 740.149 172.464 740.149 176.016V177.888C744.757 173.952 749.797 170.88 755.269 168.672C760.741 166.464 766.117 165.36 771.397 165.36C779.653 165.36 785.797 167.616 789.829 172.128C793.957 176.544 796.021 183.312 796.021 192.432V230.448ZM858.279 239.232C859.431 239.904 860.007 240.768 860.007 241.824C860.007 242.496 859.815 243.168 859.431 243.84C859.143 244.416 858.759 244.848 858.279 245.136C856.647 246 854.871 246.576 852.951 246.864C851.031 247.248 848.343 247.44 844.887 247.44C839.127 247.44 834.471 245.616 830.919 241.968C827.463 238.224 825.735 233.28 825.735 227.136V171.984H810.759V166.8H825.735V145.2H831.783V166.8H856.263V171.984H831.783V225.84C831.783 231.12 832.983 235.2 835.383 238.08C837.879 240.864 841.383 242.256 845.895 242.256C850.695 242.256 854.823 241.248 858.279 239.232Z" fill="black"/>
</svg>
